<svg width="79" height="40" fill="none" xmlns="http://www.w3.org/2000/svg"><g id="2Faces" fill-rule="evenodd" clip-rule="evenodd"><g id="round"><path id="Fill 1" d="M26.7 29.622c.58.455.881-.597.881-.597.483-1.266 1.938-4.4 1.938-4.4.595-1.05.47-2.502.47-2.502.073-1.492-.648-1.847-1.438-1.006a83.02 83.02 0 0 0 .326-1.957c1.07-3.82-.689-9.136-.689-9.136-.126-.42-.051-.188-.17-.496-.636-1.462-2.142-4.599-6.541-7.018C17.04.071 19.38.147 19.93.06c0 0-5.84-.725-11.714 2.923.345-.528 1.047-1.188 1.047-1.188-2.405 1.28-3.157 2.29-3.377 2.886-.21.178-.42.364-.628.556-1.897.034-3.498 1.761-3.498 1.761l1.354-.425C.793 7.544.922 10.156.922 10.156l.946-.75c-.216.272-.402.56-.561.863-1.316 2.509-.743 5.951-.013 8.436.166.628.4 1.563.59 2.526-1.831-1.682-1.451 2.45-1.451 2.45.077.945.919 2.33.919 2.33.43 1.053 1.118 2.591 1.118 2.591.518 1.331.959 1.472 1.251 1.326.313 1.1 4.45 7.672 11.48 7.672s11.094-6.408 11.5-7.978Z" fill="#89959C"/><path id="Fill 1_2" d="M2.802 21.069c-.008 3.48-.061 7.875 2.602 11.992 1.77 2.736 6.504 5.339 9.713 5.339 3.318 0 7.498-2.38 9.426-5.003 2.6-3.54 3.06-8.113 3.057-12.328C27.597 16.853 25.908 8 15.06 8 4 8 2.808 17.769 2.801 21.069Z" fill="#FFF1E3" stroke="#89959C" stroke-width="1.6"/></g><g id="round_2"><path id="Fill 1_3" d="M66.405 36.923c8.234-.486 10.88-2.002 11.676-2.703l-1.294-1.182a8.863 8.863 0 0 0 1.589.86c.017-.027.024-.041.024-.041-1.75-1.322-3.002-6.517-3.002-6.517-1-2.553-1.751-11.798-1.751-11.798 0-2.642-1-5.371-1-5.371-1.835-5.548-5.921-8.101-5.921-8.101a12.32 12.32 0 0 0-1.016-.567 18.915 18.915 0 0 0-5.055-1.42c-1.59-.16-2.685-.038-2.685-.038-.873.073-1.691.232-2.456.455A7.565 7.565 0 0 0 52.3 2.677s-.006-.019-.058-.023c-3.385-1.352-5.848 5.84-5.853 5.855-.725 1.74-1.385 4.677-1.385 4.677l-.5 5.878c-.376 5.019-2.315 11.293-2.315 11.293C41.44 32.668 40 33.79 40 33.79c.33.334.735.633 1.193.9.263-.134.892-.469 1.488-.91l-1.013 1.165c2.245 1.121 5.475 1.597 7.813 1.8 1.788.177 2.684.146 2.899.148l14.025.03Z" fill="#89959C"/><path id="Fill 1_4" d="M45.847 20.538c-.008 3.306-.062 8.413 2.66 12.324 1.81 2.6 6.96 5.538 10.24 5.538 3.39 0 7.974-2.726 9.944-5.219 2.657-3.362 3.127-8.638 3.124-12.643-.002-4.005-2.042-12.415-13.128-12.415-11.302 0-12.832 9.28-12.84 12.415Z" fill="#FFF1E3" stroke="#89959C" stroke-width="1.824"/></g></g></svg>