<svg width="77" height="42" fill="none" xmlns="http://www.w3.org/2000/svg"><g id="2 Faces" fill-rule="evenodd" clip-rule="evenodd"><g id="oval"><path id="Fill 1" d="M27.558 30.859c.49-1.303 1.965-4.528 1.965-4.528.603-1.08.476-2.575.476-2.575.075-1.535-.657-1.901-1.457-1.036.085-.475.255-1.507.33-2.013 1.084-3.932-.699-9.404-.699-9.404-.128-.432-.052-.193-.171-.51-.646-1.504-2.172-4.733-6.633-7.222-4.498-2.51-2.125-2.433-1.567-2.524 0 0-5.921-.745-11.877 3.01.35-.544 1.061-1.224 1.061-1.224-2.437 1.317-3.2 2.357-3.423 2.97-.213.184-.425.375-.636.572-1.924.036-3.548 1.814-3.548 1.814l1.374-.438C.399 8.751.53 11.44.53 11.44l.958-.772c-.219.28-.407.577-.568.888-1.335 2.582-.754 6.125-.014 8.682.168.646.405 1.609.598 2.6-1.856-1.73-1.47 2.52-1.47 2.52.077.974.931 2.4.931 2.4.436 1.083 1.134 2.667 1.134 2.667.525 1.369.972 1.514 1.268 1.364.318 1.132 4.512 7.896 11.64 7.896 7.127 0 11.247-6.596 11.658-8.21.588.467.893-.616.893-.616Z" fill="#89959C"/><path id="Fill 43" d="M18.08 8.885h-6.15c-2.884 0-5.938 1.348-7.401 3.156-1.618 2-2.102 4.605-2.15 6.22-.073 2.434.269 5.277.86 9.29.37 2.524 2.083 6.604 2.91 7.806.81 1.541 5.144 5.088 8.856 5.117 3.712-.029 8.046-3.576 8.857-5.117.826-1.203 2.539-5.282 2.91-7.807.59-4.012.933-6.855.86-9.29-.05-1.614-.532-4.219-2.15-6.219-1.464-1.809-4.517-3.156-7.402-3.156Z" fill="#FFF1E3" stroke="#89959C" stroke-width="1.6"/></g><g id="round"><path id="Fill 1_2" d="M64.665 37.968c8.468-.5 11.188-2.058 12.006-2.78l-1.33-1.215a9.117 9.117 0 0 0 1.634.884c.018-.027.025-.042.025-.042-1.8-1.358-3.087-6.7-3.087-6.7-1.029-2.627-1.8-12.133-1.8-12.133 0-2.717-1.03-5.524-1.03-5.524-1.886-5.704-6.087-8.33-6.087-8.33a12.68 12.68 0 0 0-1.045-.583 19.449 19.449 0 0 0-5.199-1.46c-1.635-.165-2.76-.04-2.76-.04-.898.076-1.74.24-2.526.47a7.78 7.78 0 0 0-3.305 2.238s-.007-.02-.06-.024c-3.48-1.39-6.013 6.005-6.018 6.021-.746 1.79-1.425 4.81-1.425 4.81l-.515 6.043c-.386 5.162-2.38 11.613-2.38 11.613-.771 2.377-2.25 3.531-2.25 3.531.34.344.756.652 1.227.926.27-.137.916-.482 1.53-.936l-1.042 1.199c2.31 1.152 5.63 1.642 8.035 1.85 1.838.182 2.76.15 2.98.153l14.422.03Z" fill="#89959C"/><path id="Fill 43_2" d="M60.331 8.687h-6.15c-2.884 0-5.938 1.348-7.401 3.157-1.618 2-2.101 4.605-2.15 6.219-.073 2.434.27 5.277.86 9.29.37 2.525 2.084 6.604 2.91 7.806.81 1.541 5.145 5.089 8.857 5.118 3.712-.03 8.046-3.577 8.856-5.118.827-1.202 2.539-5.281 2.91-7.806.59-4.013.933-6.856.86-9.29-.05-1.614-.532-4.219-2.15-6.219-1.464-1.809-4.517-3.157-7.402-3.157Z" fill="#FFF1E3" stroke="#89959C" stroke-width="1.6"/></g></g></svg>