<svg width="69" height="23" fill="none" xmlns="http://www.w3.org/2000/svg"><g id="cat eye"><g id="Fill 1" fill="#3A4850"><path fill-rule="evenodd" clip-rule="evenodd" d="M64.246 7.201c0 7.777-6.095 13.37-13.773 13.37s-11.135-4.846-11.285-9.936c-.09-3.993 6.078-6.035 12.694-7.406C59.17 2.375 64.376 2.223 64.246 7.2Zm-34.257 3.434c-.15 5.09-3.61 9.936-11.294 9.936-7.684 0-13.784-5.593-13.784-13.37-.13-4.978 5.08-4.826 12.374-3.972 6.62 1.371 12.795 3.413 12.704 7.406ZM68.148 4.54c.18-4.307-9.4-3.474-9.4-3.474C49.48.912 38.737 5.84 38.737 5.84c-1.512.825-3.982.89-4.146.894-.164-.004-2.635-.07-4.149-.894 0 0-10.752-4.928-20.028-4.775 0 0-9.588-.833-9.407 3.474 0 0-.472 7.56 7.027 13.716 0 0 4.82 4.084 10.783 3.84 0 0 6.716.183 10.42-4.694 0 0 1.687-2.614 2.892-5.848 0 0 .183-1.503 2.462-1.568 2.277.065 2.46 1.568 2.46 1.568a34.012 34.012 0 0 0 2.89 5.848c3.701 4.877 10.412 4.694 10.412 4.694 5.959.244 10.774-3.84 10.774-3.84 7.493-6.157 7.022-13.716 7.022-13.716Z"/><path d="m39.188 10.635-.25.006v.002l.25-.008ZM51.882 3.23l-.029-.248h-.01l-.012.003.051.245ZM4.912 7.2h.25v-.006l-.25.006ZM17.284 3.23l.05-.245-.01-.002-.011-.001-.03.248Zm41.464-2.164-.005.25h.013l.013-.001-.021-.25ZM38.736 5.84l-.104-.227-.008.003-.008.004.12.22Zm-4.146.894-.005.25h.01l-.005-.25Zm-4.149-.894.12-.22-.008-.004-.008-.003-.104.227ZM10.413 1.065l-.022.249.013.001h.013l-.004-.25ZM1.006 4.539l.25.016v-.026l-.25.01Zm7.027 13.716.162-.19-.003-.003-.159.193Zm10.783 3.84.006-.25h-.017l.01.25Zm10.42-4.694.2.152.005-.008.005-.008-.21-.136Zm2.892-5.848.234.087.01-.027.004-.03-.248-.03Zm2.462-1.568.007-.25h-.014l.007.25Zm2.46 1.568-.247.03.003.03.01.027.235-.087Zm2.89 5.848-.21.136.005.008.006.008.199-.152Zm10.412 4.694.01-.25h-.016l.006.25Zm10.774-3.84-.159-.193-.003.002.162.19ZM63.996 7.2c0 7.628-5.972 13.12-13.523 13.12v.5c7.805 0 14.023-5.695 14.023-13.62h-.5Zm-13.523 13.12c-3.784 0-6.5-1.192-8.289-2.986-1.79-1.795-2.673-4.215-2.747-6.707l-.5.014c.077 2.599.999 5.147 2.893 7.046 1.897 1.903 4.749 3.133 8.643 3.133v-.5ZM39.437 10.63c-.041-1.841 1.355-3.285 3.695-4.456 2.327-1.166 5.496-2.014 8.8-2.7l-.1-.489c-3.312.686-6.535 1.545-8.924 2.742-2.376 1.19-4.02 2.764-3.97 4.915l.5-.011Zm12.474-7.152c3.653-.428 6.733-.672 8.882-.205 1.068.233 1.876.635 2.412 1.252.532.613.822 1.47.79 2.67l.5.014c.034-1.29-.278-2.28-.912-3.012-.632-.727-1.556-1.167-2.684-1.412-2.244-.488-5.411-.23-9.046.197l.058.496Zm-22.172 7.15c-.073 2.493-.956 4.912-2.748 6.708-1.79 1.794-4.509 2.986-8.296 2.986v.5c3.897 0 6.75-1.23 8.65-3.133 1.895-1.9 2.817-4.447 2.894-7.045l-.5-.015Zm-11.044 9.694c-7.557 0-13.534-5.493-13.534-13.12h-.5c0 7.926 6.223 13.62 14.034 13.62v-.5ZM5.161 7.195c-.031-1.2.259-2.057.792-2.67.536-.618 1.345-1.02 2.414-1.253 2.15-.467 5.233-.223 8.889.205l.058-.496c-3.638-.426-6.807-.685-9.053-.197-1.13.245-2.054.685-2.686 1.412-.635.732-.948 1.723-.914 3.012l.5-.013Zm12.073-3.721c3.307.685 6.479 1.533 8.808 2.699 2.341 1.171 3.74 2.615 3.697 4.457l.5.01c.049-2.15-1.595-3.724-3.973-4.915-2.391-1.196-5.617-2.055-8.93-2.741l-.102.49ZM68.398 4.55c.05-1.193-.586-2.024-1.513-2.585-.916-.554-2.136-.86-3.335-1.026a22.677 22.677 0 0 0-3.31-.187 25.795 25.795 0 0 0-1.505.063h-.007l.02.25.022.249h.006a4.665 4.665 0 0 1 .098-.008 25.278 25.278 0 0 1 1.372-.054c.888-.01 2.066.02 3.235.182 1.175.164 2.316.458 3.145.96.819.494 1.312 1.174 1.272 2.135l.5.02ZM58.753.815C54.078.738 49.045 1.94 45.19 3.157a68.57 68.57 0 0 0-4.724 1.683 53.835 53.835 0 0 0-1.71.716l-.093.042-.024.01-.006.004h-.002l.104.228.104.227h.002l.005-.003a12.714 12.714 0 0 1 .114-.051l.354-.155c.31-.134.764-.325 1.337-.553a68.087 68.087 0 0 1 4.69-1.671c3.835-1.21 8.808-2.395 13.403-2.32l.008-.5ZM38.616 5.62c-.716.391-1.676.609-2.495.727-.813.118-1.46.135-1.536.137l.01.5c.088-.002.757-.02 1.598-.142.835-.12 1.867-.349 2.663-.783l-.24-.439Zm-4.02.864a13.636 13.636 0 0 1-1.538-.137c-.82-.118-1.78-.336-2.497-.727l-.24.44c.797.433 1.83.661 2.665.782.842.122 1.512.14 1.599.142l.01-.5ZM30.44 5.84l.104-.228h-.002l-.006-.003a10.617 10.617 0 0 0-.117-.053c-.082-.036-.203-.09-.36-.157a53.768 53.768 0 0 0-1.351-.559 68.661 68.661 0 0 0-4.728-1.683C20.123 1.94 15.086.738 10.409.815l.008.5c4.598-.076 9.575 1.109 13.413 2.319a68.182 68.182 0 0 1 4.694 1.67 53.197 53.197 0 0 1 1.692.709l.091.04c.01.005.018.009.023.01l.005.003h.002v.001l.104-.227ZM10.413 1.065l.021-.25h-.007a7.242 7.242 0 0 0-.104-.008A25.845 25.845 0 0 0 8.92.752c-.903-.01-2.109.02-3.313.187-1.199.167-2.42.472-3.337 1.026C1.343 2.525.706 3.357.756 4.55l.5-.021c-.04-.96.453-1.64 1.273-2.136.83-.501 1.972-.795 3.147-.959 1.17-.162 2.35-.193 3.238-.182a25.338 25.338 0 0 1 1.476.062h.001l.022-.25ZM1.006 4.539l-.25-.015v.002a1.439 1.439 0 0 0-.003.093c-.002.06-.004.147-.003.26.002.224.013.55.05.96.075.82.253 1.974.668 3.323.832 2.699 2.614 6.172 6.407 9.286l.317-.386c-3.706-3.043-5.439-6.428-6.246-9.047a15.892 15.892 0 0 1-.648-3.221 11.273 11.273 0 0 1-.046-1.161 3.614 3.614 0 0 1 .003-.075v-.003l-.25-.016Zm7.027 13.716-.161.19v.001h.001l.003.003a.723.723 0 0 0 .055.046c.038.03.095.076.168.132.146.114.361.275.638.467.552.385 1.35.894 2.338 1.395 1.972 1.002 4.711 1.98 7.75 1.856l-.02-.5c-2.923.12-5.575-.822-7.504-1.801a19.461 19.461 0 0 1-2.279-1.36 14.856 14.856 0 0 1-.815-.61l-.01-.008a.03.03 0 0 0-.002-.002l-.162.19Zm10.783 3.84-.007.25h.006a1.347 1.347 0 0 0 .076.001c.052 0 .129 0 .226-.003.196-.004.478-.016.827-.046.699-.06 1.669-.192 2.756-.478 2.173-.572 4.837-1.768 6.735-4.266l-.398-.303c-1.806 2.378-4.352 3.53-6.464 4.085a15.974 15.974 0 0 1-2.672.463 13.009 13.009 0 0 1-1.008.048h-.07l-.007.25Zm10.42-4.694.21.136.002-.002c0-.002.002-.004.004-.006l.015-.024.056-.09a33.54 33.54 0 0 0 .927-1.606 33.618 33.618 0 0 0 1.912-4.169l-.469-.174a33.12 33.12 0 0 1-1.883 4.105 33.342 33.342 0 0 1-.966 1.666l-.013.022-.004.005v.002l.21.135Zm2.892-5.848.248.03v.002-.007a1.135 1.135 0 0 1 .05-.174 1.48 1.48 0 0 1 .268-.447c.279-.324.824-.691 1.903-.722l-.014-.5c-1.2.034-1.885.451-2.268.895a1.98 1.98 0 0 0-.357.6 1.626 1.626 0 0 0-.078.288v.004l.248.03Zm2.455-1.318c1.078.03 1.623.398 1.902.721a1.482 1.482 0 0 1 .31.588.622.622 0 0 1 .008.04v.001-.001l.248-.031.248-.03v-.005l-.001-.006-.004-.019a1.629 1.629 0 0 0-.074-.264 1.984 1.984 0 0 0-.356-.599c-.383-.444-1.067-.86-2.267-.895l-.014.5Zm2.233 1.405a33.636 33.636 0 0 0 1.91 4.169 33.678 33.678 0 0 0 .927 1.606l.056.09.015.024.004.006.001.001.21-.135.211-.135-.001-.001-.003-.006a2.186 2.186 0 0 1-.069-.108c-.047-.077-.117-.19-.205-.337a32.99 32.99 0 0 1-.705-1.243 33.106 33.106 0 0 1-1.882-4.105l-.468.174Zm2.925 5.913c1.896 2.498 4.558 3.694 6.73 4.266a16.46 16.46 0 0 0 2.754.478 13.436 13.436 0 0 0 1.112.049h.022l-.007-.25-.006-.25H50.275c-.048 0-.12 0-.212-.002a12.994 12.994 0 0 1-.796-.046 15.955 15.955 0 0 1-2.67-.463c-2.109-.556-4.653-1.707-6.458-4.085l-.398.303Zm10.601 4.792c3.038.124 5.775-.854 7.745-1.856a19.958 19.958 0 0 0 2.336-1.395 15.394 15.394 0 0 0 .805-.6l.044-.035.011-.01c.002 0 .003-.002.003-.002l.001-.001-.161-.191-.162-.19-.002.001-.01.008-.04.033a15.032 15.032 0 0 1-.775.577c-.536.374-1.315.87-2.277 1.36-1.927.98-4.576 1.92-7.498 1.801l-.02.5Zm10.943-3.897c3.79-3.114 5.57-6.587 6.4-9.286a16.4 16.4 0 0 0 .668-3.323 11.784 11.784 0 0 0 .048-1.22 5.001 5.001 0 0 0-.003-.093v-.001l-.25.014-.25.016v.003l.001.015.002.06c.002.054.003.135.003.241-.002.213-.013.525-.048.92a15.9 15.9 0 0 1-.648 3.22c-.806 2.62-2.537 6.005-6.24 9.048l.317.386Z"/></g><g id="Group" stroke="#B0BDC5" stroke-width=".55"><path id="Fill 8" d="M16.335 9.627a.17.17 0 0 0-.24 0l-4.59 4.59a.17.17 0 0 0 .24.24l4.59-4.59a.17.17 0 0 0 0-.24"/><path id="Fill 10" d="m22.893 7.247-9.008 9.009a.17.17 0 0 0 .24.24l9.009-9.008a.17.17 0 0 0-.24-.24"/><path id="Fill 12" d="M49.31 9.627a.17.17 0 0 0-.24 0l-4.59 4.59a.17.17 0 0 0 .24.24l4.59-4.59a.17.17 0 0 0 0-.24"/><path id="Fill 14" d="m55.868 7.247-9.009 9.009a.17.17 0 0 0 .24.24l9.01-9.008a.17.17 0 0 0-.24-.24"/></g></g></svg>