<svg width="182" height="182" fill="none" xmlns="http://www.w3.org/2000/svg"><g filter="url('#filter0_dd_1_3722')"><path fill-rule="evenodd" clip-rule="evenodd" d="M156.52 90.76c0 36.318-29.442 65.76-65.76 65.76C54.44 156.52 25 127.078 25 90.76 25 54.442 54.44 25 90.76 25c36.318 0 65.76 29.442 65.76 65.76Z" fill="#F7F8F9"/></g><path fill-rule="evenodd" clip-rule="evenodd" d="m69.41 85.081-12.84 3.44a.867.867 0 0 0-.613 1.063l9.473 35.352c.124.464.6.738 1.062.614l12.84-3.44a.866.866 0 0 0 .613-1.062l-9.472-35.354a.867.867 0 0 0-1.062-.613ZM123.955 86.64a6.947 6.947 0 0 0-4.117-4.65 6.719 6.719 0 0 0-7.266-10.306l-3.192.854a30.57 30.57 0 0 0-1.912.45c-8.474 2.27-11.464 3.093-11.64 3.119a3.77 3.77 0 0 1-3.856-2.788c-.048-.178-.396-1.922-.427-1.97-.526-2.416-1.267-4.808-2.326-6.801-1.968-3.7-3.94-6.1-5.606-7.354-.016.004-.035.001-.057-.014a3.215 3.215 0 0 0-5.022 2.644c.103 1.296.347 2.72.442 3.756 1.334 14.34-4.207 19.252-5.858 22.695l-.05.799 8.497 31.714c13.448-1.988 16.285 2.352 32.27-1.978l5.397-1.446-.001-.002a6.344 6.344 0 0 0 4.486-7.77 6.301 6.301 0 0 0-1.606-2.802 6.877 6.877 0 0 0 2.286-7.099 6.846 6.846 0 0 0-2.742-3.881 6.955 6.955 0 0 0 2.3-7.17Z" fill="#2196F3"/><path d="M98.228 56.717h3.84M104.948 56.717h3.84M103.508 51.437v3.84M103.508 58.157v3.84M56.927 75.392l2.715-2.715M61.678 70.64l2.715-2.715M56.927 67.925l2.715 2.715M61.678 72.677l2.715 2.714" stroke="#2196F3" stroke-width="1.2"/><defs><filter id="filter0_dd_1_3722" x="0" y="0" width="181.52" height="181.52" filterUnits="userSpaceOnUse" color-interpolation-filters="sRGB"><feFlood flood-opacity="0" result="BackgroundImageFix"/><feColorMatrix in="SourceAlpha" values="0 0 0 0 0 0 0 0 0 0 0 0 0 0 0 0 0 0 127 0" result="hardAlpha"/><feOffset dx="9" dy="9"/><feGaussianBlur stdDeviation="8"/><feColorMatrix values="0 0 0 0 0.639216 0 0 0 0 0.694118 0 0 0 0 0.776471 0 0 0 0.325148 0"/><feBlend in2="BackgroundImageFix" result="effect1_dropShadow_1_3722"/><feColorMatrix in="SourceAlpha" values="0 0 0 0 0 0 0 0 0 0 0 0 0 0 0 0 0 0 127 0" result="hardAlpha"/><feOffset dx="-9" dy="-9"/><feGaussianBlur stdDeviation="8"/><feColorMatrix values="0 0 0 0 1 0 0 0 0 1 0 0 0 0 1 0 0 0 1 0"/><feBlend in2="effect1_dropShadow_1_3722" result="effect2_dropShadow_1_3722"/><feBlend in="SourceGraphic" in2="effect2_dropShadow_1_3722" result="shape"/></filter></defs></svg>