<svg width="38" height="53" fill="none" xmlns="http://www.w3.org/2000/svg"><g id="oval" fill-rule="evenodd" clip-rule="evenodd"><path id="Fill 1" d="M33.376 37.46c.725.568 1.1-.745 1.1-.745.604-1.58 2.423-5.488 2.423-5.488.744-1.31.587-3.12.587-3.12.092-1.862-.81-2.306-1.797-1.257.106-.575.315-1.826.407-2.44 1.337-4.766-.861-11.397-.861-11.397-.158-.523-.064-.234-.211-.618-.797-1.824-2.678-5.736-8.178-8.754C21.3.598 24.226.693 24.914.583c0 0-7.3-.904-14.643 3.646.432-.658 1.308-1.482 1.308-1.482-3.005 1.597-3.945 2.857-4.22 3.6-.263.223-.525.454-.785.693-2.372.044-4.373 2.198-4.373 2.198l1.693-.53c-2.903 1.212-2.741 4.47-2.741 4.47l1.182-.935c-.27.339-.503.7-.701 1.076-1.646 3.13-.93 7.424-.017 10.523.208.784.5 1.95.737 3.151C.066 24.896.541 30.048.541 30.048c.096 1.18 1.149 2.907 1.149 2.907.538 1.314 1.398 3.233 1.398 3.233.647 1.66 1.198 1.835 1.563 1.654.392 1.372 5.563 9.57 14.35 9.57 8.788 0 13.868-7.994 14.375-9.951Z" fill="#89959C"/><path id="Fill 43" d="M22.772 10.706h-7.544c-3.538 0-7.284 1.664-9.08 3.896-1.984 2.469-2.577 5.684-2.636 7.677-.09 3.004.33 6.514 1.054 11.466.455 3.117 3.16 8.152 4.174 9.636.994 1.902 5.707 8.073 10.26 8.11 4.554-.037 9.266-6.208 10.26-8.11 1.014-1.484 3.718-6.52 4.174-9.636.724-4.952 1.144-8.462 1.054-11.466-.06-1.993-.652-5.208-2.637-7.677-1.796-2.232-5.54-3.896-9.08-3.896Z" fill="#FFF1E3" stroke="#89959C" stroke-width="2"/></g></svg>