<svg width="38" height="51" fill="none" xmlns="http://www.w3.org/2000/svg"><g id="oval" fill-rule="evenodd" clip-rule="evenodd"><path id="Fill 1" d="M34.895 37.825c.62-1.65 2.488-5.733 2.488-5.733.764-1.37.603-3.261.603-3.261.094-1.944-.832-2.408-1.846-1.312.109-.602.323-1.908.418-2.55 1.374-4.978-.884-11.906-.884-11.906-.162-.547-.066-.245-.217-.646-.818-1.905-2.75-5.993-8.4-9.146C21.364.093 24.369.191 25.075.076c0 0-7.498-.944-15.039 3.81.443-.687 1.344-1.548 1.344-1.548-3.087 1.667-4.052 2.984-4.335 3.76-.27.233-.539.475-.806.725-2.436.045-4.491 2.296-4.491 2.296l1.739-.554C.505 9.83.67 13.235.67 13.235l1.214-.977c-.277.354-.516.73-.72 1.125-1.69 3.269-.954 7.755-.017 10.993.213.819.514 2.037.757 3.292C-.446 25.477.042 30.86.042 30.86c.1 1.233 1.18 3.037 1.18 3.037a143.388 143.388 0 0 0 1.436 3.378c.665 1.734 1.23 1.917 1.606 1.728C4.666 40.436 9.977 49 19.002 49c9.024 0 14.242-8.351 14.762-10.396.745.592 1.13-.78 1.13-.78Z" fill="#89959C"/><path id="Fill 43" d="M22.893 10h-7.787c-3.652 0-7.519 1.707-9.372 3.997-2.049 2.533-2.66 5.831-2.722 7.875-.092 3.082.341 6.683 1.088 11.763.47 3.197 2.64 8.363 3.685 9.885C8.811 45.47 14.3 49.963 19 50c4.7-.037 10.188-4.529 11.215-6.48 1.046-1.523 3.214-6.688 3.685-9.885.747-5.08 1.18-8.68 1.087-11.763-.061-2.044-.672-5.342-2.721-7.875-1.854-2.29-5.72-3.997-9.373-3.997Z" fill="#FFF1E3" stroke="#89959C" stroke-width="2"/></g></svg>