<svg width="52" height="34" fill="none" xmlns="http://www.w3.org/2000/svg"><path fill-rule="evenodd" clip-rule="evenodd" d="M12.082 13.26c-4.527 0-8.464.998-10.502 2.988C-2.55 20.82 1.58 34 12.082 34s13.215-9.179 12.936-13.618c-.345-5.743-8.408-7.123-12.936-7.123Z" fill="url('#paint0_linear_1_3601')"/><path fill-rule="evenodd" clip-rule="evenodd" d="M25.564 13.26c-4.528 0-8.465.998-10.502 2.988C10.93 20.82 15.062 34 25.564 34s13.214-9.179 12.935-13.618c-.345-5.743-8.408-7.123-12.935-7.123Z" fill="url('#paint1_linear_1_3601')"/><path fill-rule="evenodd" clip-rule="evenodd" d="M39.045 13.26c-4.527 0-8.464.998-10.502 2.988C24.412 20.82 28.543 34 39.045 34s13.215-9.179 12.936-13.618c-.345-5.743-8.408-7.123-12.936-7.123Z" fill="url('#paint2_linear_1_3601')"/><path d="M10.517 3.151a1.5 1.5 0 0 0 0 3v-3Zm6.233 3a1.5 1.5 0 0 0 0-3v3Zm3.666-3a1.5 1.5 0 1 0 0 3v-3Zm5.694 3a1.5 1.5 0 1 0 0-3v3Zm3.58-3a1.5 1.5 0 0 0 0 3v-3Zm13.163 3a1.5 1.5 0 0 0 0-3v3Zm-32.336-1.5v1.5H16.75v-3H10.517v1.5Zm9.899 1.5H26.109v-3H20.417v3Zm9.274 0H42.853v-3H29.69v3Z" fill="#2196F3"/><path d="m39.843 2 3.01 2.66-3.02 2.648" stroke="#2196F3" stroke-width="3" stroke-linecap="round" stroke-linejoin="round"/><defs><linearGradient id="paint0_linear_1_3601" x1="0" y1="13.259" x2="0" y2="34" gradientUnits="userSpaceOnUse"><stop stop-color="#F1F1F1"/><stop offset="1" stop-color="#B0BDC5" stop-opacity=".702"/></linearGradient><linearGradient id="paint1_linear_1_3601" x1="13.646" y1="13.259" x2="13.646" y2="33.728" gradientUnits="userSpaceOnUse"><stop stop-color="#F1F1F1"/><stop offset="1" stop-color="#6B6B6B" stop-opacity=".697"/></linearGradient><linearGradient id="paint2_linear_1_3601" x1="26.963" y1="13.259" x2="26.963" y2="34" gradientUnits="userSpaceOnUse"><stop stop-color="#425A60" stop-opacity=".67"/><stop offset="1" stop-color="#3A4850"/></linearGradient></defs></svg>