<svg width="318" height="118" fill="none" xmlns="http://www.w3.org/2000/svg"><g opacity=".834"><path fill-rule="evenodd" clip-rule="evenodd" d="M196.976 22.596c-.85.744-2.066 1.115-3.648 1.115-1.374 0-2.483-.222-3.328-.667v-2.255c.445.236.963.43 1.554.578.591.15 1.152.224 1.681.224 1.593 0 2.39-.653 2.39-1.96 0-1.244-.825-1.866-2.475-1.866-.298 0-.627.03-.988.089-.36.059-.653.122-.878.19l-1.039-.558.464-6.292h6.698v2.213h-4.409l-.228 2.424.296-.06a5.808 5.808 0 0 1 1.275-.117c1.194 0 2.144.335 2.851 1.005.706.67 1.06 1.588 1.06 2.753 0 1.38-.425 2.441-1.276 3.184Zm9.198-11.402v12.348h-2.61v-7.145l.026-1.174.042-1.284c-.434.434-.735.718-.904.853l-1.419 1.14-1.258-1.57 3.978-3.168h2.145Z" fill="#2196F3"/><path fill-rule="evenodd" clip-rule="evenodd" d="M234.708 23.711c1.318 0 2.348-.384 3.092-1.153.743-.768 1.114-1.811 1.114-3.129 0-1.222-.312-2.179-.937-2.872-.625-.692-1.489-1.038-2.593-1.038-1.227 0-2.12.478-2.677 1.435h-.11c.051-.974.217-1.725.498-2.255.282-.529.705-.929 1.271-1.199s1.297-.405 2.192-.405c.49 0 .985.056 1.487.168v-2.086c-.4-.084-.952-.126-1.656-.126-2.061 0-3.608.597-4.641 1.79-1.033 1.194-1.55 3.013-1.55 5.456 0 1.143.185 2.12.553 2.931.369.81.893 1.427 1.571 1.85.679.422 1.474.633 2.386.633Zm-7.846-.169V11.194h-2.145l-3.978 3.167 1.258 1.571 1.419-1.14c.169-.135.47-.42.904-.853l-.042 1.284-.026 1.174v7.145h2.61Zm6.457-2.61c.352.462.798.693 1.339.693.557 0 .985-.187 1.284-.562.298-.374.447-.908.447-1.6 0-.603-.139-1.077-.418-1.423-.279-.347-.7-.52-1.263-.52-.529 0-.981.172-1.355.515-.375.344-.562.744-.562 1.2 0 .67.176 1.236.528 1.697ZM275.026 23.711c1.469 0 2.557-.518 3.264-1.554.707-1.036 1.06-2.632 1.06-4.789 0-2.083-.365-3.665-1.094-4.746-.729-1.082-1.806-1.622-3.23-1.622-1.464 0-2.548.517-3.252 1.55-.704 1.033-1.056 2.64-1.056 4.818 0 2.09.362 3.669 1.086 4.738.723 1.07 1.797 1.605 3.222 1.605Zm-17.534-.169V11.194h-2.145l-3.978 3.167 1.258 1.571 1.419-1.14c.169-.135.47-.42.904-.853l-.042 1.284-.026 1.174v7.145h2.61Zm10.845 0v-2.559h1.486v-2.027h-1.486v-7.762h-2.408l-5.413 7.973v1.816h5.27v2.56h2.551Zm-5.524-4.586h2.973v-2.095c0-.349.014-.855.042-1.52.028-.664.051-1.05.068-1.157h-.068a9.37 9.37 0 0 1-.752 1.352l-2.263 3.42Zm10.891 1.668c.262.656.702.984 1.322.984.608 0 1.047-.332 1.317-.997.271-.664.406-1.745.406-3.243 0-1.514-.137-2.602-.41-3.264-.273-.662-.711-.992-1.313-.992-.614 0-1.053.33-1.318.992-.264.662-.397 1.75-.397 3.264 0 1.515.131 2.6.393 3.256Z" fill="#89959C"/><path d="M216.577 19.961V17.85h-4.535v2.111h4.535ZM247.139 19.961V17.85h-4.536v2.111h4.536Z" fill="#89959C"/></g><path fill-rule="evenodd" clip-rule="evenodd" d="M318 25.763V4.871a2.023 2.023 0 0 0-1.978-2.03C295.424 2.397 120.371-1.312 97.829.49c-23.958 1.914-29.707 4.548-39.29 12.69-8.463 7.189-48.307 61.717-57.514 72.037-1.353 1.515-1.362 3.778-.055 5.334 1.122 1.336 15.723 10.848 21.153 3.983 4.418-5.584 21.562-38.31 28.03-47.89 6.468-9.577 16.771-32.325 54.624-25.14 18.207 2.633 59.184 10.535 67.565 10.535 7.789 0 126.908-3.723 143.698-4.249a2.023 2.023 0 0 0 1.96-2.028Z" fill="#89959C"/><path d="M80.157 58V47.292h2.893v8.372h4.124V58h-7.017Zm15.088 0h-6.357V47.292h6.357v2.322h-3.464v1.684h3.208v2.322H91.78v2.022h3.464V58Zm12.07 0h-3.794l-3.91-7.544h-.067c.093 1.187.14 2.092.14 2.717V58H97.12V47.292h3.779l3.897 7.441h.044a42.65 42.65 0 0 1-.103-2.6v-4.841h2.578V58Zm9.317-3.252c0 .664-.169 1.255-.506 1.773-.336.512-.822.913-1.457 1.2-.635.284-1.379.426-2.234.426-.713 0-1.311-.05-1.794-.147a6.785 6.785 0 0 1-1.509-.527v-2.578a8.775 8.775 0 0 0 1.721.666 6.51 6.51 0 0 0 1.641.234c.429 0 .744-.073.944-.22a.695.695 0 0 0 .301-.578.605.605 0 0 0-.125-.38 1.3 1.3 0 0 0-.388-.338c-.176-.112-.649-.342-1.421-.688-.698-.318-1.223-.625-1.575-.923a2.898 2.898 0 0 1-.776-1.025c-.166-.386-.249-.843-.249-1.37 0-.986.359-1.755 1.077-2.307s1.704-.828 2.959-.828c1.108 0 2.238.257 3.391.77l-.886 2.233c-1.001-.459-1.866-.688-2.593-.688-.376 0-.65.066-.82.197a.599.599 0 0 0-.257.491c0 .21.108.398.322.564.22.166.811.469 1.773.908.923.415 1.562.862 1.919 1.34.361.474.542 1.072.542 1.795ZM133.749 58h-3.421l-1.025-4.666a31.132 31.132 0 0 1-.462-2.622c-.039.318-.102.713-.19 1.187-.088.469-.176.9-.264 1.296-.083.396-.437 1.997-1.062 4.805h-3.42l-2.652-10.708h2.791l1.164 5.369c.264 1.186.445 2.131.542 2.834.064-.498.176-1.174.337-2.029.166-.854.32-1.562.462-2.124l.945-4.05h2.68l.916 4.05c.156.65.315 1.4.476 2.249.161.85.268 1.484.322 1.904.064-.542.237-1.482.52-2.82l1.187-5.383h2.79L133.749 58Zm4.021 0V47.292h2.907V58h-2.907Zm14.318-5.581c0 1.787-.493 3.164-1.479 4.13-.982.968-2.363 1.451-4.146 1.451h-3.464V47.292h3.706c1.719 0 3.045.44 3.977 1.318.938.88 1.406 2.149 1.406 3.809Zm-3.003.103c0-.982-.195-1.71-.585-2.183-.386-.474-.975-.71-1.766-.71h-.842v5.998h.645c.879 0 1.523-.254 1.933-.762.41-.513.615-1.294.615-2.343ZM158.739 58h-2.893v-8.342h-2.615v-2.366h8.115v2.366h-2.607V58Zm13.315 0h-2.908v-4.365h-3.361V58h-2.908V47.292h2.908v3.97h3.361v-3.97h2.908V58Z" fill="#0F0F0F"/><path d="M80.472 75.292h3.025c1.421 0 2.449.212 3.084.637.634.425.952 1.096.952 2.014 0 .635-.178 1.16-.535 1.575-.352.41-.867.676-1.545.798v.074c1.626.278 2.439 1.132 2.439 2.563 0 .957-.325 1.704-.974 2.241-.645.537-1.548.806-2.71.806h-3.736V75.292Zm1.245 4.585h2.051c.879 0 1.511-.137 1.897-.41.386-.278.579-.745.579-1.4 0-.6-.215-1.032-.645-1.295-.43-.27-1.113-.403-2.05-.403h-1.832v3.508Zm0 1.055v4.006h2.234c.864 0 1.514-.166 1.948-.498.44-.337.66-.862.66-1.575 0-.664-.225-1.152-.674-1.465-.445-.312-1.123-.468-2.036-.468h-2.132Zm9.727.615V86h-1.245V75.292h2.937c1.313 0 2.282.251 2.907.754.63.503.945 1.26.945 2.27 0 1.417-.718 2.374-2.153 2.872L97.743 86H96.27l-2.593-4.453h-2.234Zm0-1.07h1.706c.88 0 1.524-.173 1.934-.52.41-.351.615-.876.615-1.574 0-.708-.21-1.218-.63-1.53-.415-.313-1.084-.47-2.007-.47h-1.618v4.095ZM99.47 86V75.292h1.245V86h-1.245Zm12.737-5.457c0 1.768-.481 3.12-1.443 4.058-.957.933-2.336 1.399-4.138 1.399h-2.966V75.292h3.281c1.665 0 2.959.461 3.882 1.384.923.923 1.384 2.212 1.384 3.867Zm-1.318.044c0-1.396-.352-2.448-1.055-3.156-.698-.708-1.738-1.062-3.12-1.062h-1.809v8.554h1.516c1.484 0 2.6-.363 3.347-1.091.747-.732 1.121-1.814 1.121-3.245Zm8.422-.197h3.641v5.207c-.567.18-1.143.318-1.729.41-.586.093-1.265.14-2.036.14-1.621 0-2.883-.482-3.787-1.443-.903-.967-1.355-2.32-1.355-4.058 0-1.113.223-2.087.667-2.922a4.53 4.53 0 0 1 1.933-1.92c.84-.444 1.824-.666 2.952-.666a8.07 8.07 0 0 1 3.194.63l-.484 1.099c-.967-.41-1.897-.616-2.79-.616-1.304 0-2.322.389-3.055 1.165-.732.776-1.098 1.853-1.098 3.23 0 1.445.351 2.541 1.054 3.289.708.747 1.746 1.12 3.113 1.12.742 0 1.468-.085 2.176-.256v-3.296h-2.396V80.39ZM131.5 86h-5.969V75.292h5.969v1.106h-4.724v3.45h4.438v1.098h-4.438v3.94h4.724V86Zm15.623 0h-1.231l-2.161-7.17a23.781 23.781 0 0 1-.344-1.202c-.127-.483-.193-.773-.198-.871-.107.644-.278 1.35-.512 2.117L140.582 86h-1.23l-2.85-10.708h1.319l1.692 6.614c.234.927.405 1.767.512 2.52.132-.894.328-1.768.586-2.623l1.919-6.511h1.319l2.014 6.57c.234.757.432 1.611.593 2.563.093-.693.269-1.538.527-2.534l1.685-6.599h1.318L147.123 86Zm4.541 0V75.292h1.245V86h-1.245Zm12.736-5.457c0 1.768-.481 3.12-1.442 4.058-.958.933-2.337 1.399-4.139 1.399h-2.966V75.292h3.281c1.665 0 2.959.461 3.882 1.384.923.923 1.384 2.212 1.384 3.867Zm-1.318.044c0-1.396-.352-2.448-1.055-3.156-.698-.708-1.738-1.062-3.12-1.062h-1.809v8.554h1.516c1.485 0 2.6-.363 3.347-1.091.747-.732 1.121-1.814 1.121-3.245ZM170.091 86h-1.245v-9.602h-3.391v-1.106h8.027v1.106h-3.391V86Zm13.14 0h-1.245v-5.04h-5.64V86h-1.245V75.292h1.245v4.556h5.64v-4.556h1.245V86ZM83.768 114h-1.245v-9.602h-3.391v-1.106h8.027v1.106h-3.39V114Zm10.98 0h-5.97v-10.708h5.97v1.106h-4.725v3.45h4.438v1.098h-4.438v3.941h4.724V114Zm7.118 0-3.633-9.492h-.058c.068.752.102 1.645.102 2.68V114h-1.15v-10.708h1.875l3.392 8.833h.058l3.421-8.833h1.86V114h-1.245v-6.899c0-.791.034-1.651.102-2.579h-.058L102.87 114h-1.004Zm15.601-7.588c0 1.084-.371 1.919-1.113 2.505-.738.581-1.795.872-3.172.872h-1.26V114h-1.245v-10.708h2.776c2.676 0 4.014 1.04 4.014 3.12Zm-5.545 2.307h1.121c1.103 0 1.902-.178 2.395-.534.493-.357.74-.928.74-1.714 0-.708-.232-1.236-.696-1.582-.464-.347-1.187-.52-2.168-.52h-1.392v4.35Zm7.793 5.281v-10.708h1.245v9.58h4.725V114h-5.97Zm13.763 0h-5.97v-10.708h5.97v1.106h-4.725v3.45h4.439v1.098h-4.439v3.941h4.725V114Zm6.276 0v-10.708H141v9.58h4.724V114h-5.97Zm13.763 0h-5.97v-10.708h5.97v1.106h-4.725v3.45h4.439v1.098h-4.439v3.941h4.725V114Zm10.744 0h-1.421l-5.852-8.987h-.058a39.59 39.59 0 0 1 .117 2.901V114h-1.15v-10.708h1.406l5.838 8.95h.058c-.01-.132-.032-.554-.066-1.267a22.024 22.024 0 0 1-.036-1.538v-6.145h1.164V114Zm7.654-5.61h3.64v5.207c-.566.181-1.142.318-1.728.41-.586.093-1.265.139-2.036.139-1.622 0-2.884-.48-3.787-1.442-.903-.967-1.355-2.32-1.355-4.058 0-1.113.222-2.087.666-2.922a4.528 4.528 0 0 1 1.934-1.919c.84-.445 1.824-.667 2.952-.667 1.142 0 2.207.21 3.193.63l-.483 1.099c-.967-.41-1.897-.616-2.791-.616-1.304 0-2.322.389-3.054 1.165-.733.776-1.099 1.853-1.099 3.23 0 1.445.352 2.542 1.055 3.289.708.747 1.746 1.12 3.113 1.12a9.23 9.23 0 0 0 2.175-.256v-3.296h-2.395v-1.113Zm14.348 5.61h-1.245v-5.039h-5.64V114h-1.245v-10.708h1.245v4.556h5.64v-4.556h1.245V114Zm6.24 0h-1.245v-9.602h-3.391v-1.106h8.028v1.106h-3.392V114Z" fill="#B0BDC5"/><mask id="mask0_1_2169" style="mask-type:alpha" maskUnits="userSpaceOnUse" x="192" y="27" width="11" height="2"><rect x="192" y="27" width="11" height="2" rx="1" fill="#fff"/></mask><g mask="url('#mask0_1_2169')"><path d="M181 54.5h17.051V27" stroke="#425A60" stroke-dasharray="3"/></g><path d="M182.554 54.5h15.497V27" stroke="#425A60" stroke-dasharray="3"/><path fill="#425A60" d="M196 54h2v1h-2z"/><path d="M197.215 82.5h37.576V27.191" stroke="#B0BDC5" stroke-dasharray="2.9"/><mask id="mask1_1_2169" style="mask-type:alpha" maskUnits="userSpaceOnUse" x="228" y="27" width="11" height="2"><rect x="228" y="27" width="11" height="2" rx="1" fill="#fff"/></mask><g mask="url('#mask1_1_2169')"><path d="M197.215 82.5h37.576V27.191" stroke="#B0BDC5" stroke-dasharray="3"/></g><path fill="#B0BDC5" d="M232 82h3.3v1H232z"/><path d="M208.159 111.5h62.497V27.191" stroke="#B0BDC5" stroke-dasharray="3"/></svg>