<svg width="79" height="43" fill="none" xmlns="http://www.w3.org/2000/svg"><g id="2 Faces"><g id="oval" fill-rule="evenodd" clip-rule="evenodd"><path id="Fill 1" d="M26.7 29.968c.58.454.881-.596.881-.596.483-1.263 1.938-4.39 1.938-4.39.595-1.048.47-2.497.47-2.497.073-1.489-.648-1.844-1.438-1.005.085-.46.252-1.46.326-1.952 1.07-3.812-.689-9.117-.689-9.117-.126-.42-.051-.188-.17-.495-.636-1.459-2.142-4.59-6.541-7.003C17.04.479 19.38.554 19.93.466c0 0-5.84-.723-11.714 2.917.345-.526 1.047-1.185 1.047-1.185-2.405 1.277-3.157 2.285-3.377 2.88-.21.178-.42.363-.628.554-1.897.035-3.498 1.759-3.498 1.759l1.354-.425C.793 7.936.922 10.543.922 10.543l.946-.749c-.216.272-.402.56-.561.861-1.316 2.504-.743 5.94-.013 8.419.166.626.4 1.56.59 2.52C.052 19.918.432 24.04.432 24.04c.077.944.919 2.325.919 2.325.43 1.051 1.118 2.587 1.118 2.587.518 1.328.959 1.468 1.251 1.323.313 1.098 4.45 7.655 11.48 7.655s11.094-6.395 11.5-7.96Z" fill="#89959C"/><path id="Fill 43" d="M18.218 8.565h-6.035c-2.831 0-5.828 1.33-7.264 3.117-1.588 1.975-2.062 4.547-2.11 6.14-.071 2.405.265 5.212.844 9.174.364 2.493 2.528 6.522 3.339 7.709.795 1.522 4.565 6.459 8.208 6.487 3.643-.029 7.413-4.965 8.208-6.487.811-1.187 2.975-5.216 3.34-7.709.578-3.962.915-6.77.842-9.173-.047-1.594-.52-4.166-2.11-6.141-1.436-1.786-4.432-3.117-7.262-3.117Z" fill="#FFF1E3" stroke="#89959C" stroke-width="1.6"/></g><g id="oval_2"><path id="Fill 1_2" fill-rule="evenodd" clip-rule="evenodd" d="M66.405 37.726c8.234-.493 10.88-2.03 11.676-2.742l-1.294-1.2a8.815 8.815 0 0 0 1.589.873c.017-.027.024-.042.024-.042-1.75-1.34-3.002-6.61-3.002-6.61-1-2.591-1.751-11.97-1.751-11.97 0-2.68-1-5.45-1-5.45-1.835-5.627-5.921-8.217-5.921-8.217a12.272 12.272 0 0 0-1.016-.575 18.713 18.713 0 0 0-5.055-1.44c-1.59-.164-2.685-.04-2.685-.04-.873.075-1.691.236-2.456.463A7.56 7.56 0 0 0 52.3 2.984s-.006-.02-.058-.023c-3.385-1.372-5.848 5.924-5.853 5.94-.725 1.765-1.385 4.744-1.385 4.744l-.5 5.963c-.376 5.091-2.315 11.456-2.315 11.456C41.44 33.41 40 34.548 40 34.548c.33.34.735.643 1.193.913.263-.135.892-.475 1.488-.924l-1.013 1.183c2.245 1.137 5.475 1.62 7.813 1.825 1.788.18 2.684.15 2.899.151l14.025.03Z" fill="#89959C"/><g id="Fill 43_2"><path fill-rule="evenodd" clip-rule="evenodd" d="M69.276 11.588C67.863 9.761 64.916 8.4 62.132 8.4h-5.935c-2.784 0-5.732 1.361-7.144 3.188-1.562 2.02-2.028 4.65-2.075 6.28-.07 2.459.26 5.33.83 9.382.358 2.55 1.535 6.181 2.333 7.395.782 1.557 5.44 6.606 9.024 6.635 3.582-.03 8.24-5.078 9.023-6.635.798-1.214 1.975-4.845 2.334-7.395.569-4.052.9-6.923.828-9.381-.046-1.63-.512-4.261-2.074-6.281Z" fill="#FFF1E3"/><path d="M69.276 11.588C67.863 9.761 64.916 8.4 62.132 8.4h-5.935c-2.784 0-5.732 1.361-7.144 3.188-1.562 2.02-2.028 4.65-2.075 6.28-.07 2.459.26 5.33.83 9.382.358 2.55 1.535 6.181 2.333 7.395.782 1.557 5.44 6.606 9.024 6.635 3.582-.03 8.24-5.078 9.023-6.635.798-1.214 1.975-4.845 2.334-7.395.569-4.052.9-6.923.828-9.381-.046-1.63-.512-4.261-2.074-6.281" stroke="#89959C" stroke-width="1.824"/></g></g></g></svg>