<svg width="65" height="21" fill="none" xmlns="http://www.w3.org/2000/svg"><path fill-rule="evenodd" clip-rule="evenodd" d="M58.763 13.853c-1.156 2.699-2.043 3.701-4.626 4.626-2.583.926-9.022 1.003-11.605-.54-2.583-1.541-4.935-6.592-4.511-9.985.424-3.393 6.13-4.51 6.13-4.51 8.945-1.312 13.263.308 14.65 1.464 1.389 1.157 1.119 6.246-.038 8.945ZM23.082 17.94c-2.584 1.543-9.022 1.466-11.605.54-2.583-.925-3.47-1.927-4.627-4.626-1.156-2.7-1.426-7.788-.038-8.945 1.388-1.156 5.706-2.776 14.65-1.465 0 0 5.707 1.118 6.131 4.511.424 3.393-1.928 8.444-4.511 9.985ZM64.226 2.71C55.55-.75 46.369.8 39.34 2.537c-2.588.64-5.27.798-5.297.8l-1.233.012-1.225-.011c-.041-.003-2.724-.162-5.31-.802C12.891-.769 5.944.892 1.387 2.707a.71.71 0 0 0-.449.662v2.916c0 .211.093.41.255.546.573.48 1.311 1.148 1.574 1.616.146.258.528 1.218 1.14 2.762.79 2 1.875 4.737 2.307 5.433.398.643 2.64 3.862 7.596 4.12 4.503.236 9.095.267 11.424-2.101 2.327-2.367 4.946-8.734 4.972-8.798.2-.557 1-1.607 2.6-1.52a3.32 3.32 0 0 1 .182-.005c1.473 0 2.226.99 2.422 1.537.021.052 2.64 6.42 4.968 8.786 2.329 2.368 6.922 2.338 11.424 2.102 4.956-.259 7.197-3.478 7.596-4.12.432-.696 1.516-3.434 2.307-5.434.612-1.544.994-2.503 1.14-2.761.262-.468 1-1.137 1.574-1.616a.713.713 0 0 0 .254-.547V3.37a.708.708 0 0 0-.448-.662Z" fill="#3A4850"/><path d="M15.335 9.368a.17.17 0 0 0-.24 0l-4.59 4.59a.17.17 0 0 0 .24.24l4.59-4.59a.17.17 0 0 0 0-.24M21.893 6.989l-9.008 9.008a.17.17 0 0 0 .24.24l9.009-9.008a.17.17 0 0 0-.24-.24M48.31 9.368a.17.17 0 0 0-.24 0l-4.59 4.59a.17.17 0 0 0 .24.24l4.59-4.59a.17.17 0 0 0 0-.24M54.868 6.989l-9.009 9.008a.17.17 0 0 0 .24.24l9.01-9.008a.17.17 0 0 0-.24-.24" stroke="#B0BDC5" stroke-width=".55"/></svg>