<svg width="38" height="49" fill="none" xmlns="http://www.w3.org/2000/svg"><g id="round" fill-rule="evenodd" clip-rule="evenodd"><path id="Fill 1" d="M33.376 37.028c.725.569 1.1-.747 1.1-.747.604-1.583 2.423-5.5 2.423-5.5.744-1.312.587-3.127.587-3.127.092-1.865-.81-2.31-1.797-1.258.106-.577.315-1.83.407-2.446 1.337-4.775-.861-11.42-.861-11.42-.158-.525-.064-.235-.211-.62-.797-1.828-2.678-5.748-8.178-8.772C21.3.088 24.226.183 24.914.073c0 0-7.3-.905-14.643 3.654.432-.659 1.308-1.485 1.308-1.485-3.005 1.6-3.945 2.863-4.22 3.608-.263.223-.525.455-.785.694-2.372.044-4.373 2.203-4.373 2.203l1.693-.532c-2.903 1.215-2.741 4.48-2.741 4.48l1.182-.937c-.27.34-.503.7-.701 1.078-1.646 3.136-.93 7.44-.017 10.545.208.785.5 1.954.737 3.158C.066 24.437.541 29.6.541 29.6c.096 1.183 1.149 2.913 1.149 2.913a136.64 136.64 0 0 0 1.398 3.24c.647 1.663 1.198 1.84 1.563 1.658C5.043 38.786 10.214 47 19.001 47c8.788 0 13.868-8.01 14.375-9.972Z" fill="#89959C"/><path id="Fill 1_2" d="M3.502 26.336c-.01 4.35-.076 9.844 3.253 14.99C8.968 44.746 14.885 48 18.897 48c4.146 0 9.371-2.974 11.782-6.254 3.25-4.424 3.824-10.14 3.821-15.41C34.497 21.066 32.385 10 18.824 10 5 10 3.51 22.21 3.502 26.336Z" fill="#FFF1E3" stroke="#89959C" stroke-width="2"/></g></svg>