<svg width="45" height="44" fill="none" xmlns="http://www.w3.org/2000/svg"><path fill-rule="evenodd" clip-rule="evenodd" d="M43.814 39.67c-.033-.103-.155-.44-.155-.44a6.433 6.433 0 0 0-.134-.317s-.06-.107-.098-.14c-.401-.34-2.08-1.636-5.64-2.816 0 0-5.714-2.318-5.983-2.543-.27-.224-1.89-.922-1.89-.922s-.158-.236-.337-.73a9.629 9.629 0 0 1-.39-2.064l-.051-.018c-.002-.02-.005-.037-.006-.057h-.154l-.59-.207-.294-2.671v-1.39c.012-.045.026-.09.042-.138.253-.34.452-.702.607-1.066.353-.61.727-1.524.996-2.662.387.33.586-.434.586-.434.322-.918 1.29-3.19 1.29-3.19.396-.763.312-1.816.312-1.816.05-1.082-.43-1.34-.956-.73.056-.335.168-1.062.216-1.42.712-2.771-.458-6.628-.458-6.628-.084-.304-.034-.136-.112-.359-.424-1.06-1.426-3.336-4.353-5.091C23.31.051 24.867.106 25.233.042c0 0-3.886-.525-7.794 2.121.23-.382.696-.862.696-.862-1.6.929-2.1 1.662-2.247 2.094-.14.13-.279.264-.417.403-1.262.025-2.328 1.278-2.328 1.278l.901-.308c-1.545.705-1.459 2.6-1.459 2.6l.63-.545a4.029 4.029 0 0 0-.374.627c-.876 1.82-.494 4.317-.009 6.12.11.455.266 1.133.393 1.832-1.218-1.22-.966 1.776-.966 1.776.052.687.612 1.691.612 1.691.286.764.744 1.88.744 1.88.345.966.638 1.067.832.962.209.798.475 1.665.76 2.22l.029.05c.344.837.725 1.227.725 1.227l-.041 2.403-.199 1.811-.788.211s-.194 1.893-.663 2.878c-.651.306-6.2 2.91-7.597 3.334 0 0-4.255 1.499-5.923 2.948 0 0-.2.23-.247.34-.009.02-.017.043-.025.065 0 0-.103.258-.164.455A7.086 7.086 0 0 0 0 41.492v1.687h44.125V41.49a7.06 7.06 0 0 0-.311-1.822Z" fill="#5B6971"/></svg>