<svg width="182" height="182" fill="none" xmlns="http://www.w3.org/2000/svg"><g filter="url('#filter0_dd_1_4060')"><path fill-rule="evenodd" clip-rule="evenodd" d="M156.52 90.76c0 36.318-29.442 65.76-65.76 65.76-36.318 0-65.76-29.442-65.76-65.76C25 54.442 54.442 25 90.76 25c36.318 0 65.76 29.442 65.76 65.76Z" fill="#F7F8F9"/></g><path d="M86 50.28h3.84M92.72 50.28h3.84M91.28 45v3.84M91.28 51.72v3.84M55 69.467l2.715-2.715M59.752 64.715 62.466 62M55 62l2.715 2.715M59.752 66.752l2.715 2.715" stroke="#2196F3" stroke-width="1.2"/><path d="M119.75 78.75h-15.111c2.557-1.455 3.861-3.535 3.861-6.25 0-6.722-4.28-7.5-7.5-7.5-4.126 0-8.065 4.736-10 9.502C89.065 69.736 85.127 65 81 65c-3.22 0-7.5.778-7.5 7.5 0 2.715 1.304 4.795 3.861 6.25H62.25c-.69 0-1.25.559-1.25 1.25v15c0 .691.56 1.25 1.25 1.25h22.5v-15h2.5v15h7.5v-15h2.5v15h22.5c.69 0 1.25-.559 1.25-1.25V80c0-.691-.56-1.25-1.25-1.25ZM76 72.5c0-4.183 1.834-5 5-5 3.64 0 7.956 6.446 8.653 11.235C83.133 78.593 76 77.33 76 72.5Zm16.347 6.235C93.044 73.946 97.36 67.5 101 67.5c3.166 0 5 .817 5 5 0 4.83-7.132 6.093-13.653 6.235ZM97.25 98.75h17.5v25c0 .691-.56 1.25-1.25 1.25h-45a1.25 1.25 0 0 1-1.25-1.25v-25h17.5v23.75h2.5V98.75h7.5v23.75h2.5V98.75Z" fill="#2196F3"/><defs><filter id="filter0_dd_1_4060" x="0" y="0" width="181.52" height="181.52" filterUnits="userSpaceOnUse" color-interpolation-filters="sRGB"><feFlood flood-opacity="0" result="BackgroundImageFix"/><feColorMatrix in="SourceAlpha" values="0 0 0 0 0 0 0 0 0 0 0 0 0 0 0 0 0 0 127 0" result="hardAlpha"/><feOffset dx="9" dy="9"/><feGaussianBlur stdDeviation="8"/><feColorMatrix values="0 0 0 0 0.639216 0 0 0 0 0.694118 0 0 0 0 0.776471 0 0 0 0.325148 0"/><feBlend in2="BackgroundImageFix" result="effect1_dropShadow_1_4060"/><feColorMatrix in="SourceAlpha" values="0 0 0 0 0 0 0 0 0 0 0 0 0 0 0 0 0 0 127 0" result="hardAlpha"/><feOffset dx="-9" dy="-9"/><feGaussianBlur stdDeviation="8"/><feColorMatrix values="0 0 0 0 1 0 0 0 0 1 0 0 0 0 1 0 0 0 1 0"/><feBlend in2="effect1_dropShadow_1_4060" result="effect2_dropShadow_1_4060"/><feBlend in="SourceGraphic" in2="effect2_dropShadow_1_4060" result="shape"/></filter></defs></svg>