<svg width="65" height="22" fill="none" xmlns="http://www.w3.org/2000/svg"><path fill-rule="evenodd" clip-rule="evenodd" d="m38.5 4.95-1.533 2.248v2.38l.767 1.773.766 2.35 1 1.699 2.124 3.325 5.273 1.264 7.197-.587 3.04-1.908 2.606-3.792s.82-4.278.82-4.796c0-.519-.82-3.314-.82-3.314s-1.321-1.78-1.964-1.78c-.642 0-5.528-.598-6.41-.598h-7.213l-2.913 1.21-2.74.526Z" fill="url('#paint0_linear_1_1953')"/><path fill-rule="evenodd" clip-rule="evenodd" d="M6.6 4.95 5.067 7.198v2.38l.766 1.773.767 2.35v1.979l3.124 3.045 5.273 1.264 7.197-.587 2.66-2.103 2.055-2.792s1.5-5.907 1.5-6.425c0-.518-1.5-2.729-1.5-2.729s-1.412-1.31-2.054-1.31c-.643 0-4.507-.83-5.389-.83l-7.213.001h-4.07L6.6 4.95Z" fill="url('#paint1_linear_1_1953')"/><path fill-rule="evenodd" clip-rule="evenodd" d="M58.763 14.112c-1.156 2.699-2.043 3.701-4.626 4.626-2.583.926-9.022 1.003-11.605-.54-2.583-1.542-4.935-6.592-4.511-9.985.424-3.393 6.13-4.511 6.13-4.511 8.945-1.31 13.263.309 14.65 1.465 1.389 1.157 1.119 6.246-.038 8.945Zm-35.681 4.086c-2.584 1.543-9.022 1.465-11.605.54s-3.47-1.928-4.627-4.627c-1.156-2.698-1.426-7.788-.038-8.944C8.2 4.01 12.518 2.39 21.462 3.702c0 0 5.707 1.118 6.131 4.51.424 3.394-1.928 8.444-4.511 9.986Zm41.144-15.23C55.55-.493 46.369 1.06 39.34 2.795c-2.588.64-5.27.8-5.297.801l-1.233.012-1.225-.012c-.041-.002-2.724-.161-5.31-.8C12.891-.51 5.944 1.15 1.387 2.966a.71.71 0 0 0-.449.661v2.916c0 .211.093.41.255.546.573.479 1.311 1.148 1.574 1.616.146.258.528 1.217 1.14 2.761.79 2 1.875 4.738 2.307 5.433.398.643 2.64 3.863 7.596 4.122 4.503.235 9.095.266 11.424-2.103 2.327-2.366 4.946-8.734 4.972-8.797.2-.557 1-1.607 2.6-1.52a3.32 3.32 0 0 1 .182-.005c1.473 0 2.226.99 2.422 1.537.021.052 2.64 6.42 4.968 8.786 2.329 2.368 6.922 2.337 11.424 2.102 4.956-.259 7.197-3.478 7.596-4.12.432-.696 1.516-3.435 2.307-5.434.612-1.544.994-2.504 1.14-2.762.262-.467 1-1.136 1.574-1.615a.713.713 0 0 0 .254-.547V3.629a.708.708 0 0 0-.448-.662Z" fill="#3A4850"/><path d="M15.335 9.627a.17.17 0 0 0-.24 0l-4.59 4.59a.17.17 0 0 0 .24.24l4.59-4.59a.17.17 0 0 0 0-.24M21.893 7.247l-9.008 9.009a.17.17 0 0 0 .24.24l9.009-9.008a.17.17 0 0 0-.24-.24M48.31 9.627a.17.17 0 0 0-.24 0l-4.59 4.59a.17.17 0 0 0 .24.24l4.59-4.59a.17.17 0 0 0 0-.24M54.868 7.247l-9.009 9.009a.17.17 0 0 0 .24.24l9.01-9.008a.17.17 0 0 0-.24-.24" stroke="#fff" stroke-width=".55"/><defs><linearGradient id="paint0_linear_1_1953" x1="37.015" y1="3.214" x2="37.015" y2="19.922" gradientUnits="userSpaceOnUse"><stop stop-color="#89959C" stop-opacity=".629"/><stop offset="1" stop-color="#3A4850" stop-opacity=".821"/></linearGradient><linearGradient id="paint1_linear_1_1953" x1="5.114" y1="3.214" x2="5.114" y2="19.922" gradientUnits="userSpaceOnUse"><stop stop-color="#89959C" stop-opacity=".629"/><stop offset="1" stop-color="#3A4850" stop-opacity=".885"/></linearGradient></defs></svg>