<svg width="48" height="53" fill="none" xmlns="http://www.w3.org/2000/svg"><g id="oval"><path id="Fill 1" fill-rule="evenodd" clip-rule="evenodd" d="M33.006 47.157c10.293-.616 13.6-2.538 14.595-3.427l-1.618-1.5c.78.535 1.48.88 1.987 1.09.022-.033.03-.051.03-.051-2.189-1.676-3.753-8.263-3.753-8.263-1.25-3.239-2.188-14.962-2.188-14.962 0-3.35-1.25-6.812-1.25-6.812C38.514 6.198 33.407 2.96 33.407 2.96c-.42-.266-.845-.503-1.27-.72-.426-.196-3.07-1.377-6.32-1.8C23.83.236 22.463.391 22.463.391a15.43 15.43 0 0 0-3.07.578 9.451 9.451 0 0 0-4.018 2.76s-.008-.023-.072-.028c-4.232-1.715-7.31 7.405-7.317 7.425-.906 2.207-1.732 5.93-1.732 5.93L5.63 24.51c-.47 6.364-2.893 14.32-2.893 14.32C1.798 41.761 0 43.185 0 43.185c.413.424.919.803 1.491 1.142a13.68 13.68 0 0 0 1.86-1.155L2.085 44.65c2.807 1.42 6.844 2.024 9.766 2.28 2.235.226 3.355.187 3.623.19l17.532.036Z" fill="#89959C"/><g id="Fill 43"><path fill-rule="evenodd" clip-rule="evenodd" d="M36.595 14.485c-1.766-2.284-5.45-3.985-8.93-3.985h-7.42c-3.479 0-7.163 1.701-8.929 3.985-1.952 2.525-2.535 5.813-2.593 7.85-.088 3.074.324 6.663 1.037 11.728.447 3.187 1.92 7.726 2.916 9.243.977 1.946 6.801 8.257 11.28 8.294 4.478-.037 10.301-6.348 11.279-8.294.997-1.517 2.468-6.056 2.917-9.243.712-5.065 1.125-8.654 1.036-11.727-.059-2.038-.64-5.326-2.593-7.851Z" fill="#FFF1E3"/><path d="M36.595 14.485c-1.766-2.284-5.45-3.985-8.93-3.985h-7.42c-3.479 0-7.163 1.701-8.929 3.985-1.952 2.525-2.535 5.813-2.593 7.85-.088 3.074.324 6.663 1.037 11.728.447 3.187 1.92 7.726 2.916 9.243.977 1.946 6.801 8.257 11.28 8.294 4.478-.037 10.301-6.348 11.279-8.294.997-1.517 2.468-6.056 2.917-9.243.712-5.065 1.125-8.654 1.036-11.727-.059-2.038-.64-5.326-2.593-7.851" stroke="#89959C" stroke-width="2.28"/></g></g></svg>