<svg width="42" height="44" fill="none" xmlns="http://www.w3.org/2000/svg"><path fill-rule="evenodd" clip-rule="evenodd" d="M39.029 35.95c-.853-.946-7.672-3.43-8.646-3.903-.974-.473-2.314-1.3-2.314-1.3l-.425-.584-1.036-.126c-.787.074-.872-2.062-.827-3.65 5.857-.347 7.738-1.43 8.305-1.93l-.92-.844c.443.3.842.495 1.13.614.013-.02.017-.03.017-.03-1.245-.943-2.135-4.652-2.135-4.652-.712-1.824-1.246-8.425-1.246-8.425 0-1.886-.711-3.836-.711-3.836-1.305-3.96-4.212-5.784-4.212-5.784a8.75 8.75 0 0 0-.722-.405A13.409 13.409 0 0 0 21.69.082C20.56-.033 19.78.054 19.78.054a8.851 8.851 0 0 0-1.747.325 5.38 5.38 0 0 0-2.286 1.555s-.004-.014-.04-.017c-2.409-.965-4.16 4.17-4.164 4.181-.516 1.243-.986 3.34-.986 3.34l-.356 4.197c-.267 3.583-1.646 8.063-1.646 8.063C8.022 23.348 7 24.15 7 24.15c.235.24.523.453.849.643a7.768 7.768 0 0 0 1.058-.65l-.72.833c1.597.8 3.894 1.14 5.557 1.284.171-1.109.458-3.363.322-5.318.132 1.328.376 4.01.336 5.368.73.047 1.251.055 1.404.056.046 1.59-.037 3.745-.827 3.671l-1.036.126-.425.584s-1.34.827-2.314 1.3c-.974.473-7.793 2.957-8.646 3.903-.852.945-2.435 2.203-2.557 4.944V43.2h41.586v-2.306c-.121-2.741-1.704-3.998-2.557-4.944Z" fill="#5B6971"/></svg>