<svg width="50" height="52" fill="none" xmlns="http://www.w3.org/2000/svg"><g id="round" fill-rule="evenodd" clip-rule="evenodd"><path id="Fill 1" d="M34.381 48.077c10.722-.633 14.166-2.606 15.203-3.52l-1.685-1.54c.812.55 1.542.904 2.07 1.12a.422.422 0 0 0 .031-.053c-2.28-1.72-3.909-8.484-3.909-8.484-1.302-3.326-2.28-15.363-2.28-15.363 0-3.44-1.302-6.994-1.302-6.994-2.39-7.223-7.71-10.548-7.71-10.548-.436-.273-.879-.516-1.322-.738-.443-.203-3.198-1.414-6.583-1.849-2.07-.21-3.495-.05-3.495-.05A16.28 16.28 0 0 0 20.2.651a9.85 9.85 0 0 0-4.185 2.834s-.009-.024-.075-.03c-4.409-1.76-7.615 7.604-7.622 7.625-.944 2.266-1.804 6.09-1.804 6.09l-.652 7.652C5.375 31.358 2.85 39.527 2.85 39.527 1.873 42.537 0 43.998 0 43.998c.43.436.957.825 1.553 1.172a14.29 14.29 0 0 0 1.937-1.185l-1.318 1.518c2.924 1.46 7.129 2.08 10.173 2.342 2.328.232 3.495.192 3.774.194l18.262.038Z" fill="#89959C"/><path id="Fill 43" d="M28.893 11h-7.787c-3.652 0-7.519 1.707-9.372 3.997-2.049 2.533-2.66 5.831-2.722 7.875-.092 3.082.341 6.683 1.088 11.763.47 3.197 2.64 8.363 3.685 9.885C14.811 46.47 20.3 50.963 25 51c4.7-.037 10.188-4.529 11.215-6.48 1.046-1.523 3.214-6.688 3.685-9.885.747-5.08 1.18-8.68 1.087-11.763-.061-2.044-.672-5.342-2.721-7.875-1.854-2.29-5.72-3.997-9.373-3.997Z" fill="#FFF1E3" stroke="#89959C" stroke-width="2"/></g></svg>