<svg width="49" height="50" fill="none" xmlns="http://www.w3.org/2000/svg"><g id="round" fill-rule="evenodd" clip-rule="evenodd"><path id="Fill 1" d="M33.693 46.154c10.508-.608 13.883-2.502 14.9-3.379l-1.652-1.478c.796.527 1.511.867 2.028 1.075a.398.398 0 0 0 .031-.051c-2.234-1.652-3.83-8.145-3.83-8.145-1.277-3.193-2.235-14.749-2.235-14.749 0-3.302-1.276-6.714-1.276-6.714-2.342-6.934-7.555-10.126-7.555-10.126a15.846 15.846 0 0 0-1.297-.708c-.434-.195-3.134-1.358-6.45-1.775-2.03-.201-3.426-.048-3.426-.048a16.251 16.251 0 0 0-3.134.57 9.666 9.666 0 0 0-4.102 2.72s-.008-.023-.073-.028c-4.32-1.69-7.463 7.299-7.47 7.319-.925 2.175-1.767 5.846-1.767 5.846l-.639 7.346c-.479 6.274-2.953 14.117-2.953 14.117C1.836 40.836 0 42.238 0 42.238a7.27 7.27 0 0 0 1.522 1.126 14.055 14.055 0 0 0 1.899-1.139l-1.292 1.458c2.865 1.4 6.986 1.996 9.97 2.248 2.28.223 3.424.184 3.698.187l17.896.036Z" fill="#89959C"/><path id="Fill 1_2" d="M8.31 25.673c-.01 4.132-.078 10.516 3.324 15.405C13.895 44.328 20.333 48 24.433 48c4.237 0 9.968-3.407 12.43-6.524 3.322-4.203 3.91-10.797 3.906-15.803-.003-5.006-2.552-15.52-16.41-15.52-14.127 0-16.04 11.601-16.05 15.52Z" fill="#FFF1E3" stroke="#89959C" stroke-width="2.28"/></g></svg>